<mxfile host="app.diagrams.net" modified="2023-05-13T18:44:34.761Z" agent="Mozilla/5.0 (Windows NT 10.0; Win64; x64) AppleWebKit/537.36 (KHTML, like Gecko) Chrome/113.0.0.0 Safari/537.36" etag="Wk-0dgeP0DdDw_hYli4I" version="21.3.0" type="device">
  <diagram name="Page-1" id="boobHGPxrguEzaFVaxlB">
    <mxGraphModel dx="1595" dy="668" grid="1" gridSize="10" guides="1" tooltips="1" connect="1" arrows="1" fold="1" page="0" pageScale="1" pageWidth="827" pageHeight="1169" math="0" shadow="0">
      <root>
        <mxCell id="0" />
        <mxCell id="1" parent="0" />
        <mxCell id="43kQx5Z-7fdRml2MFiNv-5" value="Input" style="edgeStyle=orthogonalEdgeStyle;rounded=0;orthogonalLoop=1;jettySize=auto;html=1;" parent="1" source="43kQx5Z-7fdRml2MFiNv-3" target="43kQx5Z-7fdRml2MFiNv-4" edge="1">
          <mxGeometry relative="1" as="geometry" />
        </mxCell>
        <mxCell id="43kQx5Z-7fdRml2MFiNv-3" value="" style="shape=umlActor;verticalLabelPosition=bottom;verticalAlign=top;html=1;outlineConnect=0;" parent="1" vertex="1">
          <mxGeometry x="-50" y="210" width="30" height="60" as="geometry" />
        </mxCell>
        <mxCell id="43kQx5Z-7fdRml2MFiNv-7" style="edgeStyle=orthogonalEdgeStyle;rounded=0;orthogonalLoop=1;jettySize=auto;html=1;" parent="1" source="43kQx5Z-7fdRml2MFiNv-4" target="43kQx5Z-7fdRml2MFiNv-6" edge="1">
          <mxGeometry relative="1" as="geometry" />
        </mxCell>
        <mxCell id="43kQx5Z-7fdRml2MFiNv-4" value="Question" style="shape=parallelogram;html=1;strokeWidth=2;perimeter=parallelogramPerimeter;whiteSpace=wrap;rounded=1;arcSize=12;size=0.23;" parent="1" vertex="1">
          <mxGeometry x="50" y="210" width="100" height="60" as="geometry" />
        </mxCell>
        <mxCell id="43kQx5Z-7fdRml2MFiNv-20" style="edgeStyle=orthogonalEdgeStyle;rounded=0;orthogonalLoop=1;jettySize=auto;html=1;" parent="1" source="43kQx5Z-7fdRml2MFiNv-6" target="43kQx5Z-7fdRml2MFiNv-56" edge="1">
          <mxGeometry relative="1" as="geometry">
            <mxPoint x="280" y="330" as="targetPoint" />
          </mxGeometry>
        </mxCell>
        <mxCell id="43kQx5Z-7fdRml2MFiNv-23" value="" style="edgeStyle=orthogonalEdgeStyle;rounded=0;orthogonalLoop=1;jettySize=auto;html=1;dashed=1;" parent="1" source="43kQx5Z-7fdRml2MFiNv-6" target="43kQx5Z-7fdRml2MFiNv-58" edge="1">
          <mxGeometry relative="1" as="geometry">
            <mxPoint x="430" y="240" as="targetPoint" />
          </mxGeometry>
        </mxCell>
        <mxCell id="43kQx5Z-7fdRml2MFiNv-6" value="Browser" style="rounded=0;whiteSpace=wrap;html=1;" parent="1" vertex="1">
          <mxGeometry x="220" y="210" width="120" height="60" as="geometry" />
        </mxCell>
        <mxCell id="43kQx5Z-7fdRml2MFiNv-18" value="Local Storage" style="shape=cylinder3;whiteSpace=wrap;html=1;boundedLbl=1;backgroundOutline=1;size=15;fillColor=#6a00ff;fontColor=#ffffff;strokeColor=#3700CC;" parent="1" vertex="1">
          <mxGeometry x="120" y="320" width="60" height="80" as="geometry" />
        </mxCell>
        <mxCell id="43kQx5Z-7fdRml2MFiNv-25" value="" style="edgeStyle=orthogonalEdgeStyle;rounded=0;orthogonalLoop=1;jettySize=auto;html=1;" parent="1" source="43kQx5Z-7fdRml2MFiNv-58" target="43kQx5Z-7fdRml2MFiNv-24" edge="1">
          <mxGeometry relative="1" as="geometry">
            <mxPoint x="530" y="240" as="sourcePoint" />
          </mxGeometry>
        </mxCell>
        <mxCell id="43kQx5Z-7fdRml2MFiNv-60" style="edgeStyle=orthogonalEdgeStyle;rounded=0;orthogonalLoop=1;jettySize=auto;html=1;" parent="1" source="43kQx5Z-7fdRml2MFiNv-24" target="43kQx5Z-7fdRml2MFiNv-59" edge="1">
          <mxGeometry relative="1" as="geometry" />
        </mxCell>
        <mxCell id="43kQx5Z-7fdRml2MFiNv-24" value="API /ask" style="whiteSpace=wrap;html=1;rounded=0;" parent="1" vertex="1">
          <mxGeometry x="620" y="210" width="120" height="60" as="geometry" />
        </mxCell>
        <mxCell id="43kQx5Z-7fdRml2MFiNv-67" style="edgeStyle=orthogonalEdgeStyle;rounded=0;orthogonalLoop=1;jettySize=auto;html=1;" parent="1" source="43kQx5Z-7fdRml2MFiNv-28" target="43kQx5Z-7fdRml2MFiNv-66" edge="1">
          <mxGeometry relative="1" as="geometry" />
        </mxCell>
        <mxCell id="43kQx5Z-7fdRml2MFiNv-28" value="Agent" style="whiteSpace=wrap;html=1;rounded=0;" parent="1" vertex="1">
          <mxGeometry x="620" y="470" width="120" height="60" as="geometry" />
        </mxCell>
        <mxCell id="43kQx5Z-7fdRml2MFiNv-37" value="SQLite Database" style="shape=cylinder3;whiteSpace=wrap;html=1;boundedLbl=1;backgroundOutline=1;size=15;fillColor=#008a00;fontColor=#ffffff;strokeColor=#005700;" parent="1" vertex="1">
          <mxGeometry x="590" y="580" width="60" height="80" as="geometry" />
        </mxCell>
        <mxCell id="43kQx5Z-7fdRml2MFiNv-43" style="edgeStyle=orthogonalEdgeStyle;rounded=0;orthogonalLoop=1;jettySize=auto;html=1;" parent="1" source="43kQx5Z-7fdRml2MFiNv-75" target="43kQx5Z-7fdRml2MFiNv-3" edge="1">
          <mxGeometry relative="1" as="geometry">
            <mxPoint x="-120" y="600" as="sourcePoint" />
          </mxGeometry>
        </mxCell>
        <mxCell id="43kQx5Z-7fdRml2MFiNv-44" value="Displays Answer" style="edgeLabel;html=1;align=center;verticalAlign=middle;resizable=0;points=[];" parent="43kQx5Z-7fdRml2MFiNv-43" vertex="1" connectable="0">
          <mxGeometry relative="1" as="geometry">
            <mxPoint as="offset" />
          </mxGeometry>
        </mxCell>
        <mxCell id="43kQx5Z-7fdRml2MFiNv-76" style="edgeStyle=orthogonalEdgeStyle;rounded=0;orthogonalLoop=1;jettySize=auto;html=1;" parent="1" source="43kQx5Z-7fdRml2MFiNv-41" target="43kQx5Z-7fdRml2MFiNv-75" edge="1">
          <mxGeometry relative="1" as="geometry" />
        </mxCell>
        <mxCell id="43kQx5Z-7fdRml2MFiNv-41" value="Browser" style="rounded=0;whiteSpace=wrap;html=1;" parent="1" vertex="1">
          <mxGeometry x="220" y="470" width="120" height="60" as="geometry" />
        </mxCell>
        <mxCell id="43kQx5Z-7fdRml2MFiNv-57" style="edgeStyle=orthogonalEdgeStyle;rounded=0;orthogonalLoop=1;jettySize=auto;html=1;" parent="1" source="43kQx5Z-7fdRml2MFiNv-56" target="43kQx5Z-7fdRml2MFiNv-18" edge="1">
          <mxGeometry relative="1" as="geometry" />
        </mxCell>
        <mxCell id="43kQx5Z-7fdRml2MFiNv-56" value="Generate:&lt;br&gt;user_token" style="shape=parallelogram;html=1;strokeWidth=2;perimeter=parallelogramPerimeter;whiteSpace=wrap;rounded=1;arcSize=12;size=0.23;fillColor=#6a00ff;fontColor=#ffffff;strokeColor=#3700CC;" parent="1" vertex="1">
          <mxGeometry x="230" y="330" width="100" height="60" as="geometry" />
        </mxCell>
        <mxCell id="43kQx5Z-7fdRml2MFiNv-58" value="{question,&lt;br&gt;user_token}" style="shape=parallelogram;html=1;strokeWidth=2;perimeter=parallelogramPerimeter;whiteSpace=wrap;rounded=1;arcSize=12;size=0.23;" parent="1" vertex="1">
          <mxGeometry x="420" y="210" width="120" height="60" as="geometry" />
        </mxCell>
        <mxCell id="43kQx5Z-7fdRml2MFiNv-61" style="edgeStyle=orthogonalEdgeStyle;rounded=0;orthogonalLoop=1;jettySize=auto;html=1;" parent="1" source="43kQx5Z-7fdRml2MFiNv-59" target="43kQx5Z-7fdRml2MFiNv-28" edge="1">
          <mxGeometry relative="1" as="geometry" />
        </mxCell>
        <mxCell id="43kQx5Z-7fdRml2MFiNv-59" value="Generates&lt;br&gt;agent for&lt;br&gt;user_token" style="shape=parallelogram;html=1;strokeWidth=2;perimeter=parallelogramPerimeter;whiteSpace=wrap;rounded=1;arcSize=12;size=0.23;" parent="1" vertex="1">
          <mxGeometry x="620" y="340" width="120" height="60" as="geometry" />
        </mxCell>
        <mxCell id="43kQx5Z-7fdRml2MFiNv-65" style="edgeStyle=orthogonalEdgeStyle;rounded=0;orthogonalLoop=1;jettySize=auto;html=1;" parent="1" source="43kQx5Z-7fdRml2MFiNv-63" target="43kQx5Z-7fdRml2MFiNv-37" edge="1">
          <mxGeometry relative="1" as="geometry" />
        </mxCell>
        <mxCell id="43kQx5Z-7fdRml2MFiNv-63" value="Question&lt;br&gt;&amp;amp; Answer" style="shape=parallelogram;html=1;strokeWidth=2;perimeter=parallelogramPerimeter;whiteSpace=wrap;rounded=1;arcSize=12;size=0.23;fillColor=#008a00;fontColor=#ffffff;strokeColor=#005700;" parent="1" vertex="1">
          <mxGeometry x="420" y="590" width="120" height="60" as="geometry" />
        </mxCell>
        <mxCell id="43kQx5Z-7fdRml2MFiNv-69" style="edgeStyle=orthogonalEdgeStyle;rounded=0;orthogonalLoop=1;jettySize=auto;html=1;dashed=1;" parent="1" source="43kQx5Z-7fdRml2MFiNv-66" target="43kQx5Z-7fdRml2MFiNv-41" edge="1">
          <mxGeometry relative="1" as="geometry" />
        </mxCell>
        <mxCell id="43kQx5Z-7fdRml2MFiNv-70" style="edgeStyle=orthogonalEdgeStyle;rounded=0;orthogonalLoop=1;jettySize=auto;html=1;" parent="1" source="43kQx5Z-7fdRml2MFiNv-66" target="43kQx5Z-7fdRml2MFiNv-63" edge="1">
          <mxGeometry relative="1" as="geometry" />
        </mxCell>
        <mxCell id="43kQx5Z-7fdRml2MFiNv-66" value="{answer}" style="shape=parallelogram;html=1;strokeWidth=2;perimeter=parallelogramPerimeter;whiteSpace=wrap;rounded=1;arcSize=12;size=0.23;" parent="1" vertex="1">
          <mxGeometry x="420" y="470" width="120" height="60" as="geometry" />
        </mxCell>
        <mxCell id="43kQx5Z-7fdRml2MFiNv-75" value="Answer" style="shape=parallelogram;html=1;strokeWidth=2;perimeter=parallelogramPerimeter;whiteSpace=wrap;rounded=1;arcSize=12;size=0.23;" parent="1" vertex="1">
          <mxGeometry x="50" y="470" width="100" height="60" as="geometry" />
        </mxCell>
        <mxCell id="krfEyLVwQq1KCgLUG3NH-1" value="Example Client: DeFiChainWiki" style="swimlane;whiteSpace=wrap;html=1;" vertex="1" parent="1">
          <mxGeometry x="-90" y="150" width="470" height="410" as="geometry">
            <mxRectangle x="-100" y="160" width="140" height="30" as="alternateBounds" />
          </mxGeometry>
        </mxCell>
        <mxCell id="krfEyLVwQq1KCgLUG3NH-2" value="Fly.io backend" style="swimlane;whiteSpace=wrap;html=1;" vertex="1" parent="1">
          <mxGeometry x="400" y="150" width="360" height="530" as="geometry">
            <mxRectangle x="-100" y="160" width="140" height="30" as="alternateBounds" />
          </mxGeometry>
        </mxCell>
      </root>
    </mxGraphModel>
  </diagram>
</mxfile>
